<svg width="100" height="100" viewBox="0 0 100 100" fill="none" xmlns="http://www.w3.org/2000/svg">
<path d="M48.5093 55.5046L16.6667 39.5833V67.9442C16.6667 69.4938 16.6667 70.2687 16.9084 70.9471C17.1221 71.5468 17.4704 72.0896 17.9266 72.5337C18.4426 73.0362 19.147 73.359 20.5556 74.0047L47.2223 86.2269C48.2441 86.6952 48.755 86.9294 49.2873 87.0218C49.7589 87.1037 50.2411 87.1037 50.7127 87.0218C51.245 86.9294 51.7559 86.6952 52.7777 86.2269L79.4444 74.0047C80.853 73.359 81.5574 73.0362 82.0734 72.5337C82.5296 72.0896 82.8779 71.5468 83.0916 70.9471C83.3333 70.2687 83.3333 69.4938 83.3333 67.9442V39.5833L51.4907 55.5046C50.9441 55.7779 50.6708 55.9146 50.3842 55.9684C50.1303 56.016 49.8697 56.016 49.6158 55.9684C49.3292 55.9146 49.0559 55.7779 48.5093 55.5046Z" fill="#58C1C8"/>
<path d="M48.5093 15.3287L8.33333 35.4167L16.6667 39.5833L48.5093 55.5046C49.0559 55.7779 49.3292 55.9146 49.6158 55.9684C49.8697 56.016 50.1303 56.016 50.3842 55.9684C50.6708 55.9146 50.9441 55.7779 51.4907 55.5046L83.3333 39.5833L91.6667 35.4167L51.4907 15.3287C50.9441 15.0554 50.6708 14.9187 50.3842 14.8649C50.1303 14.8173 49.8697 14.8173 49.6158 14.8649C49.3292 14.9187 49.0559 15.0554 48.5093 15.3287Z" fill="#58C1C8"/>
<path d="M8.33333 35.4167L48.5093 15.3287C49.0559 15.0554 49.3292 14.9187 49.6158 14.8649C49.8697 14.8173 50.1303 14.8173 50.3842 14.8649C50.6708 14.9187 50.9441 15.0554 51.4907 15.3287L91.6667 35.4167M8.33333 35.4167L48.5093 55.5046M8.33333 35.4167L16.6667 39.5833M91.6667 35.4167L51.4907 55.5046M91.6667 35.4167L83.3333 39.5833M48.5093 55.5046C49.0559 55.7779 49.3292 55.9146 49.6158 55.9684C49.8697 56.016 50.1303 56.016 50.3842 55.9684C50.6708 55.9146 50.9441 55.7779 51.4907 55.5046M48.5093 55.5046L16.6667 39.5833M51.4907 55.5046L83.3333 39.5833M16.6667 39.5833V67.9442C16.6667 69.4938 16.6667 70.2687 16.9084 70.9471C17.1221 71.5468 17.4704 72.0896 17.9266 72.5337C18.4426 73.0362 19.147 73.359 20.5556 74.0047L47.2223 86.2269C48.2441 86.6952 48.755 86.9294 49.2873 87.0218C49.7589 87.1037 50.2411 87.1037 50.7127 87.0218C51.245 86.9294 51.7559 86.6952 52.7777 86.2269L79.4444 74.0047C80.853 73.359 81.5574 73.0362 82.0734 72.5337C82.5296 72.0896 82.8779 71.5468 83.0916 70.9471C83.3333 70.2687 83.3333 69.4938 83.3333 67.9442V39.5833" stroke="#58C1C8" stroke-width="10" stroke-linecap="round" stroke-linejoin="round"/>
<path d="M8 46.4L48.176 66.488C48.7225 66.7613 48.9958 66.8979 49.2825 66.9517C49.5364 66.9993 49.7969 66.9993 50.0508 66.9517C50.3375 66.8979 50.6108 66.7613 51.1574 66.488L91.3333 46.4" stroke="white" stroke-width="10" stroke-linecap="round" stroke-linejoin="round"/>
<path d="M72.8333 64V51.4768C72.8333 50.729 72.8333 50.355 72.7195 50.0249C72.6188 49.733 72.4544 49.4671 72.2384 49.2465C71.994 48.997 71.6596 48.8298 70.9907 48.4954L52 39" stroke="white" stroke-width="10" stroke-linecap="round" stroke-linejoin="round"/>
</svg>
