<svg width="28" height="28" viewBox="0 0 28 28" fill="none" xmlns="http://www.w3.org/2000/svg">
<path d="M13.5826 15.5413L4.66671 11.0833V19.0244C4.66671 19.4583 4.66671 19.6752 4.7344 19.8652C4.79423 20.0331 4.89176 20.1851 5.01948 20.3094C5.16396 20.4501 5.36119 20.5405 5.75562 20.7213L13.2223 24.1435C13.5084 24.2746 13.6514 24.3402 13.8005 24.3661C13.9325 24.389 14.0676 24.389 14.1996 24.3661C14.3486 24.3402 14.4917 24.2746 14.7778 24.1435L22.2445 20.7213C22.6389 20.5405 22.8361 20.4501 22.9806 20.3094C23.1083 20.1851 23.2058 20.0331 23.2657 19.8652C23.3334 19.6752 23.3334 19.4583 23.3334 19.0244V11.0833L14.4174 15.5413C14.2644 15.6178 14.1879 15.6561 14.1076 15.6711C14.0365 15.6845 13.9636 15.6845 13.8925 15.6711C13.8122 15.6561 13.7357 15.6178 13.5826 15.5413Z" fill="#3C8D90"/>
<path d="M13.5826 4.29201L2.33337 9.91664L4.66671 11.0833L13.5826 15.5413C13.7357 15.6178 13.8122 15.6561 13.8925 15.6711C13.9636 15.6845 14.0365 15.6845 14.1076 15.6711C14.1879 15.6561 14.2644 15.6178 14.4174 15.5413L23.3334 11.0833L25.6667 9.91664L14.4174 4.29201C14.2644 4.21548 14.1879 4.17722 14.1076 4.16216C14.0365 4.14883 13.9636 4.14883 13.8925 4.16216C13.8122 4.17722 13.7357 4.21548 13.5826 4.29201Z" fill="#3C8D90"/>
<path d="M2.33337 9.91664L13.5826 4.29201C13.7357 4.21548 13.8122 4.17722 13.8925 4.16216C13.9636 4.14883 14.0365 4.14883 14.1076 4.16216C14.1879 4.17722 14.2644 4.21548 14.4174 4.29201L25.6667 9.91664M2.33337 9.91664L13.5826 15.5413M2.33337 9.91664L4.66671 11.0833M25.6667 9.91664L14.4174 15.5413M25.6667 9.91664L23.3334 11.0833M13.5826 15.5413C13.7357 15.6178 13.8122 15.6561 13.8925 15.6711C13.9636 15.6845 14.0365 15.6845 14.1076 15.6711C14.1879 15.6561 14.2644 15.6178 14.4174 15.5413M13.5826 15.5413L4.66671 11.0833M14.4174 15.5413L23.3334 11.0833M4.66671 11.0833V19.0244C4.66671 19.4583 4.66671 19.6752 4.7344 19.8652C4.79423 20.0331 4.89176 20.1851 5.01948 20.3094C5.16396 20.4501 5.36119 20.5405 5.75562 20.7213L13.2223 24.1435C13.5084 24.2746 13.6514 24.3402 13.8005 24.3661C13.9325 24.389 14.0676 24.389 14.1996 24.3661C14.3486 24.3402 14.4917 24.2746 14.7778 24.1435L22.2445 20.7213C22.6389 20.5405 22.8361 20.4501 22.9806 20.3094C23.1083 20.1851 23.2058 20.0331 23.2657 19.8652C23.3334 19.6752 23.3334 19.4583 23.3334 19.0244V11.0833" stroke="#3C8D90" stroke-width="2" stroke-linecap="round" stroke-linejoin="round"/>
<path d="M2.33337 12.15L13.5826 17.7747C13.7357 17.8512 13.8122 17.8894 13.8925 17.9045C13.9636 17.9178 14.0365 17.9178 14.1076 17.9045C14.1879 17.8894 14.2644 17.8512 14.4174 17.7747L25.6667 12.15" stroke="#D4F1F3" stroke-width="2" stroke-linecap="round" stroke-linejoin="round"/>
<path d="M20.3933 17.7333V14.2268C20.3933 14.0174 20.3933 13.9127 20.3614 13.8203C20.3332 13.7386 20.2872 13.6641 20.2267 13.6024C20.1583 13.5325 20.0646 13.4857 19.8773 13.392L14.5599 10.7333" stroke="#D4F1F3" stroke-width="2" stroke-linecap="round" stroke-linejoin="round"/>
</svg>
