<svg width="28" height="28" viewBox="0 0 28 28" fill="none" xmlns="http://www.w3.org/2000/svg">
<path d="M18.6667 11.0833C18.6667 13.6606 16.5774 15.75 14 15.75C11.4227 15.75 9.33337 13.6606 9.33337 11.0833C9.33337 8.50598 11.4227 6.41665 14 6.41665C16.5774 6.41665 18.6667 8.50598 18.6667 11.0833Z" fill="#3C8D90"/>
<path d="M10.5 19.8333C8.56912 19.8333 6.9121 21.006 6.20238 22.6781C6.32557 22.7889 6.45112 22.897 6.57896 23.0025C8.59564 24.6669 11.1811 25.6666 14 25.6666C16.9977 25.6666 19.7313 24.5361 21.7977 22.6781C21.088 21.0061 19.431 19.8333 17.5 19.8333H10.5Z" fill="#3C8D90"/>
<path d="M14 25.6666C20.4434 25.6666 25.6667 20.4433 25.6667 14C25.6667 7.55666 20.4434 2.33331 14 2.33331C7.55672 2.33331 2.33337 7.55666 2.33337 14C2.33337 17.6243 3.98607 20.8627 6.57896 23.0025M14 25.6666C16.9977 25.6666 19.7313 24.5361 21.7977 22.6781C21.088 21.0061 19.431 19.8333 17.5 19.8333H10.5C8.56912 19.8333 6.9121 21.006 6.20238 22.6781C6.32557 22.7889 6.45112 22.897 6.57896 23.0025M14 25.6666C11.1811 25.6666 8.59564 24.6669 6.57896 23.0025M18.6667 11.0833C18.6667 13.6606 16.5774 15.75 14 15.75C11.4227 15.75 9.33337 13.6606 9.33337 11.0833C9.33337 8.50598 11.4227 6.41665 14 6.41665C16.5774 6.41665 18.6667 8.50598 18.6667 11.0833Z" stroke="#3C8D90" stroke-width="2" stroke-linecap="round" stroke-linejoin="round"/>
</svg>
