<svg width="28" height="28" viewBox="0 0 28 28" fill="none" xmlns="http://www.w3.org/2000/svg">
<path d="M19.8334 16.9166V13.4101C19.8334 13.2007 19.8334 13.0961 19.8015 13.0036C19.7733 12.9219 19.7273 12.8474 19.6668 12.7857C19.5984 12.7158 19.5047 12.669 19.3174 12.5753L14 9.91664M4.66671 11.0833V19.0244C4.66671 19.4583 4.66671 19.6752 4.7344 19.8652C4.79423 20.0331 4.89176 20.1851 5.01948 20.3094C5.16396 20.4501 5.36119 20.5405 5.75562 20.7213L13.2223 24.1435C13.5084 24.2746 13.6514 24.3402 13.8005 24.3661C13.9325 24.389 14.0676 24.389 14.1996 24.3661C14.3486 24.3402 14.4917 24.2746 14.7778 24.1435L22.2445 20.7213C22.6389 20.5405 22.8361 20.4501 22.9806 20.3094C23.1083 20.1851 23.2059 20.0331 23.2657 19.8652C23.3334 19.6752 23.3334 19.4583 23.3334 19.0244V11.0833M2.33337 9.91664L13.5826 4.29201C13.7357 4.21548 13.8122 4.17722 13.8925 4.16216C13.9636 4.14883 14.0365 4.14883 14.1076 4.16216C14.1879 4.17722 14.2644 4.21548 14.4174 4.29201L25.6667 9.91664L14.4174 15.5413C14.2644 15.6178 14.1879 15.6561 14.1076 15.6711C14.0365 15.6845 13.9636 15.6845 13.8925 15.6711C13.8122 15.6561 13.7357 15.6178 13.5826 15.5413L2.33337 9.91664Z" stroke="#3C8D90" stroke-width="2" stroke-linecap="round" stroke-linejoin="round"/>
</svg>
