<svg width="28" height="28" viewBox="0 0 28 28" fill="none" xmlns="http://www.w3.org/2000/svg">
<path d="M10.5 24.5V15.8667C10.5 15.2133 10.5 14.8866 10.6271 14.637C10.739 14.4175 10.9175 14.239 11.137 14.1272C11.3866 14 11.7133 14 12.3667 14H15.6333C16.2867 14 16.6134 14 16.863 14.1272C17.0825 14.239 17.261 14.4175 17.3728 14.637C17.5 14.8866 17.5 15.2133 17.5 15.8667V24.5M2.33331 11.0833L12.88 3.17333C13.2816 2.87211 13.4824 2.72149 13.703 2.66344C13.8977 2.61219 14.1023 2.61219 14.297 2.66344C14.5175 2.72149 14.7183 2.87211 15.12 3.17333L25.6666 11.0833M4.66665 9.33333V20.7667C4.66665 22.0735 4.66665 22.7269 4.92097 23.226C5.14467 23.665 5.50163 24.022 5.94067 24.2457C6.4398 24.5 7.09319 24.5 8.39998 24.5H19.6C20.9068 24.5 21.5602 24.5 22.0593 24.2457C22.4983 24.022 22.8553 23.665 23.079 23.226C23.3333 22.7269 23.3333 22.0735 23.3333 20.7667V9.33333L16.24 4.01333C15.4367 3.41088 15.0351 3.10965 14.594 2.99354C14.2046 2.89104 13.7954 2.89104 13.406 2.99354C12.9649 3.10965 12.5633 3.41088 11.76 4.01333L4.66665 9.33333Z" stroke="#3C8D90" stroke-width="2" stroke-linecap="round" stroke-linejoin="round"/>
</svg>
