<svg width="28" height="28" viewBox="0 0 28 28" fill="none" xmlns="http://www.w3.org/2000/svg">
<path d="M6.20238 22.6781C6.9121 21.006 8.56912 19.8333 10.5 19.8333H17.5C19.431 19.8333 21.088 21.0061 21.7977 22.6781M18.6667 11.0833C18.6667 13.6606 16.5774 15.75 14 15.75C11.4227 15.75 9.33337 13.6606 9.33337 11.0833C9.33337 8.50598 11.4227 6.41665 14 6.41665C16.5774 6.41665 18.6667 8.50598 18.6667 11.0833ZM25.6667 14C25.6667 20.4433 20.4434 25.6666 14 25.6666C7.55672 25.6666 2.33337 20.4433 2.33337 14C2.33337 7.55666 7.55672 2.33331 14 2.33331C20.4434 2.33331 25.6667 7.55666 25.6667 14Z" stroke="#3C8D90" stroke-width="2" stroke-linecap="round" stroke-linejoin="round"/>
</svg>
